STARTFONT 2.1
FONT -Monotype-Times New Roman-Bold-I-Normal--24-240-75-75-P-142-iso8859-5
SIZE 24 75 75
FONTBOUNDINGBOX 35 29 -4 -6

STARTPROPERTIES 24
FOUNDRY "Monotype"
FAMILY_NAME "Times New Roman"
WEIGHT_NAME "Bold"
SLANT "I"
SETWIDTH_NAME "Normal"
ADD_STYLE_NAME ""
PIXEL_SIZE 24
POINT_SIZE 240
RESOLUTION_X 75
RESOLUTION_Y 75
SPACING "P"
AVERAGE_WIDTH 142
CHARSET_REGISTRY "iso8859"
CHARSET_ENCODING "5"
FACE_NAME "Times New Roman Bold Inclined ISO Latin Cyrillic"
_DEC_DEVICE_FONTNAMES "PS=timesnewroman-bin-latcyrillic"
COPYRIGHT "Copyright (c) 1993 Monotype Typography Ltd."
CAP_HEIGHT 19
X_HEIGHT 13
WEIGHT 10
QUAD_WIDTH 17
DEFAULT_CHAR 160
FONT_DESCENT 6
FONT_ASCENT 23
ENDPROPERTIES

CHARS 191

STARTCHAR space
ENCODING 32
SWIDTH 250 0
DWIDTH 6 0
BBX 0 0 0 0
BITMAP
ENDCHAR

STARTCHAR exclam
ENCODING 33
SWIDTH 271 0
DWIDTH 7 0
BBX 8 18 0 0
BITMAP
06
0F
0E
0E
0E
0C
0C
18
18
10
10
10
10
00
60
F0
F0
60
ENDCHAR

STARTCHAR quotedbl
ENCODING 34
SWIDTH 552 0
DWIDTH 14 0
BBX 9 9 5 9
BITMAP
2180
F380
E380
E380
C700
C700
8600
8600
8400
ENDCHAR

STARTCHAR numbersign
ENCODING 35
SWIDTH 667 0
DWIDTH 17 0
BBX 15 18 2 0
BITMAP
061C
0E18
0C18
0C18
0C38
FFFE
FFFE
1830
1830
1870
3860
FFFE
FF7E
30E0
30E0
70C0
70C0
60C0
ENDCHAR

STARTCHAR dollar
ENCODING 36
SWIDTH 500 0
DWIDTH 13 0
BBX 12 21 1 -2
BITMAP
00C0
07C0
0CB0
18B0
3920
3920
3D00
1E00
1F00
0F80
07C0
07C0
05E0
04E0
48E0
C8E0
C8C0
F180
3E00
1000
1000
ENDCHAR

STARTCHAR percent
ENCODING 37
SWIDTH 875 0
DWIDTH 22 0
BBX 20 18 2 0
BITMAP
060030
190060
3100C0
330180
630300
630600
660C00
461800
6C3000
1060C0
00C120
018320
030660
060660
0C0660
1004C0
600480
C00300
ENDCHAR

STARTCHAR ampersand
ENCODING 38
SWIDTH 719 0
DWIDTH 18 0
BBX 16 18 0 0
BITMAP
0078
009C
019C
019C
0398
03B8
03E0
03C0
03CF
0DCE
39CC
71E8
71E8
F0F0
F0F0
F879
7FBF
3E1C
ENDCHAR

STARTCHAR quoteright
ENCODING 39
SWIDTH 271 0
DWIDTH 7 0
BBX 5 8 3 10
BITMAP
30
78
78
78
30
30
60
80
ENDCHAR

STARTCHAR parenleft
ENCODING 40
SWIDTH 500 0
DWIDTH 13 0
BBX 9 22 4 -5
BITMAP
0080
0300
0600
0C00
1C00
3800
7800
7000
7000
E000
E000
E000
E000
E000
C000
C000
C000
4000
4000
2000
2000
2000
ENDCHAR

STARTCHAR parenright
ENCODING 41
SWIDTH 500 0
DWIDTH 13 0
BBX 10 22 0 -5
BITMAP
0200
0100
0100
0180
0180
0180
01C0
01C0
01C0
01C0
03C0
0380
0380
0380
0700
0700
0E00
0C00
1800
3000
4000
8000
ENDCHAR

STARTCHAR asterisk
ENCODING 42
SWIDTH 500 0
DWIDTH 13 0
BBX 9 10 4 8
BITMAP
0800
1C00
0800
C980
FF80
0800
1400
7700
6700
2200
ENDCHAR

STARTCHAR plus
ENCODING 43
SWIDTH 667 0
DWIDTH 17 0
BBX 13 13 3 2
BITMAP
0700
0700
0700
0700
0700
FFF8
FFF8
FFF8
0700
0700
0700
0700
0700
ENDCHAR

STARTCHAR comma
ENCODING 44
SWIDTH 271 0
DWIDTH 7 0
BBX 5 8 -1 -5
BITMAP
70
78
78
38
30
20
40
80
ENDCHAR

STARTCHAR minus
ENCODING 45
SWIDTH 667 0
DWIDTH 17 0
BBX 14 3 2 7
BITMAP
FFFC
FFFC
FFFC
ENDCHAR

STARTCHAR period
ENCODING 46
SWIDTH 271 0
DWIDTH 7 0
BBX 4 4 0 0
BITMAP
60
F0
F0
60
ENDCHAR

STARTCHAR slash
ENCODING 47
SWIDTH 281 0
DWIDTH 7 0
BBX 13 18 -2 0
BITMAP
0078
0070
00E0
00E0
01C0
01C0
0380
0380
0700
0700
0E00
0E00
1C00
1C00
3800
3800
7000
F000
ENDCHAR

STARTCHAR zero
ENCODING 48
SWIDTH 500 0
DWIDTH 13 0
BBX 11 18 2 0
BITMAP
0380
0C40
1C60
1860
3860
70E0
70E0
70E0
F0E0
E1E0
E1C0
E1C0
E1C0
C380
C380
C700
4600
3800
ENDCHAR

STARTCHAR one
ENCODING 49
SWIDTH 500 0
DWIDTH 13 0
BBX 11 18 1 0
BITMAP
0060
1FC0
03C0
03C0
0380
0380
0380
0700
0700
0700
0F00
0E00
0E00
0E00
1C00
1C00
3C00
FF00
ENDCHAR

STARTCHAR two
ENCODING 50
SWIDTH 500 0
DWIDTH 13 0
BBX 11 18 1 0
BITMAP
0700
0FC0
1FC0
21E0
00E0
00E0
00E0
00C0
01C0
0180
0300
0600
0C00
1840
10C0
3F80
7F80
FF00
ENDCHAR

STARTCHAR three
ENCODING 51
SWIDTH 500 0
DWIDTH 13 0
BBX 11 18 1 0
BITMAP
0380
0FE0
11E0
00E0
00E0
01C0
0080
0700
1F80
03C0
03C0
01C0
01C0
01C0
0180
E180
F300
7C00
ENDCHAR

STARTCHAR four
ENCODING 52
SWIDTH 500 0
DWIDTH 13 0
BBX 12 18 1 0
BITMAP
0030
0070
00E0
01E0
02E0
02C0
05C0
09C0
13C0
2380
6380
4780
FFE0
FFC0
0700
0F00
0E00
0E00
ENDCHAR

STARTCHAR five
ENCODING 53
SWIDTH 500 0
DWIDTH 13 0
BBX 12 18 1 0
BITMAP
07F0
07E0
0FE0
0800
1000
1E00
3F00
0F80
03C0
03C0
01C0
01C0
01C0
0180
0180
C100
E200
FC00
ENDCHAR

STARTCHAR six
ENCODING 54
SWIDTH 500 0
DWIDTH 13 0
BBX 13 18 1 0
BITMAP
0038
00C0
0380
0700
0E00
1C00
3800
7F80
79C0
70E0
F0E0
F0E0
E0E0
E1E0
61C0
6180
2300
1E00
ENDCHAR

STARTCHAR seven
ENCODING 55
SWIDTH 500 0
DWIDTH 13 0
BBX 11 18 3 0
BITMAP
7FE0
7FC0
FFC0
8080
0180
0100
0200
0600
0400
0C00
0800
1000
3000
2000
6000
4000
8000
8000
ENDCHAR

STARTCHAR eight
ENCODING 56
SWIDTH 500 0
DWIDTH 13 0
BBX 12 18 1 0
BITMAP
03C0
0E60
1C70
1C70
1C70
1C60
1EE0
0F80
0780
1B80
33C0
61C0
E1C0
E1C0
E1C0
6180
6300
1E00
ENDCHAR

STARTCHAR nine
ENCODING 57
SWIDTH 500 0
DWIDTH 13 0
BBX 13 18 0 0
BITMAP
03C0
0E30
1E30
1C38
3C38
3C38
3878
3878
3870
1CF0
0FF0
01E0
01C0
03C0
0780
0E00
3800
C000
ENDCHAR

STARTCHAR colon
ENCODING 58
SWIDTH 333 0
DWIDTH 8 0
BBX 6 11 1 0
BITMAP
18
3C
3C
18
00
00
00
60
F0
F0
60
ENDCHAR

STARTCHAR semicolon
ENCODING 59
SWIDTH 333 0
DWIDTH 8 0
BBX 7 16 0 -5
BITMAP
0C
1E
1E
0C
00
00
00
00
30
78
78
78
30
30
60
80
ENDCHAR

STARTCHAR less
ENCODING 60
SWIDTH 667 0
DWIDTH 17 0
BBX 13 13 2 2
BITMAP
0018
0078
03F8
0FE0
3F00
FC00
F000
FC00
3F80
07E0
01F8
0078
0008
ENDCHAR

STARTCHAR equal
ENCODING 61
SWIDTH 667 0
DWIDTH 17 0
BBX 14 9 2 4
BITMAP
FFFC
FFFC
FFFC
0000
0000
0000
FFFC
FFFC
FFFC
ENDCHAR

STARTCHAR greater
ENCODING 62
SWIDTH 667 0
DWIDTH 17 0
BBX 14 13 3 2
BITMAP
C000
F800
FE00
1F80
07F0
01BC
007C
01FC
07E0
3F80
FE00
F000
C000
ENDCHAR

STARTCHAR question
ENCODING 63
SWIDTH 385 0
DWIDTH 10 0
BBX 10 18 1 0
BITMAP
0E00
1180
39C0
39C0
39C0
03C0
0780
0700
0C00
1800
3000
2000
2000
0000
6000
F000
F000
6000
ENDCHAR

STARTCHAR at
ENCODING 64
SWIDTH 958 0
DWIDTH 24 0
BBX 22 23 1 -6
BITMAP
00FF00
0300C0
0C0020
180010
300010
603B88
60EB08
41C708
C1C708
838E08
838E08
870E08
871E10
872C10
C75C20
47DCC4
438F08
600008
200010
100020
0C00C0
038300
007C00
ENDCHAR

STARTCHAR A
ENCODING 65
SWIDTH 719 0
DWIDTH 18 0
BBX 15 18 0 0
BITMAP
0002
0006
0006
000E
001E
003E
006E
005E
009E
011C
021C
07FC
0C1C
081C
101C
203C
603C
F8FE
ENDCHAR

STARTCHAR B
ENCODING 66
SWIDTH 667 0
DWIDTH 17 0
BBX 17 18 0 0
BITMAP
0FFE00
03CF00
03C780
03C780
038780
078700
078F00
070C00
0FF000
0F1C00
0F0E00
0F0F00
1F0F00
1E0F00
1E1F00
1E1E00
3C3C00
FFF000
ENDCHAR

STARTCHAR C
ENCODING 67
SWIDTH 719 0
DWIDTH 18 0
BBX 18 18 2 0
BITMAP
00FF40
03C3C0
070180
1E0080
3E0080
3C0000
780000
780000
F80000
F00000
F00000
F00000
F00000
700000
780200
380400
1E1800
0FE000
ENDCHAR

STARTCHAR D
ENCODING 68
SWIDTH 771 0
DWIDTH 19 0
BBX 19 18 -1 0
BITMAP
07FC00
01C700
03C380
03C3C0
03C1E0
0381E0
0781E0
0781E0
0701E0
0F01E0
0F03E0
0F03C0
0E03C0
1E0780
1E0F00
1E0E00
3E3C00
FFE000
ENDCHAR

STARTCHAR E
ENCODING 69
SWIDTH 667 0
DWIDTH 17 0
BBX 17 18 0 0
BITMAP
0FFF80
03C380
03C180
038080
078000
078400
070400
0F0800
0FF800
0F1800
0E0800
1E0800
1E0000
1E0200
1C0200
3C0E00
3C3C00
FFFC00
ENDCHAR

STARTCHAR F
ENCODING 70
SWIDTH 604 0
DWIDTH 15 0
BBX 17 18 0 0
BITMAP
0FFF80
03C700
03C300
038100
078000
078800
078800
071000
0FF000
0F3000
0E1000
1E1000
1E0000
1E0000
1C0000
3C0000
3C0000
FF0000
ENDCHAR

STARTCHAR G
ENCODING 71
SWIDTH 719 0
DWIDTH 18 0
BBX 18 18 1 0
BITMAP
00FF40
03C3C0
0F0180
1E0080
3C0080
7C0080
780000
780000
F00000
F03F80
F01F00
F01E00
F01E00
701C00
783C00
383C00
1C3C00
07F000
ENDCHAR

STARTCHAR H
ENCODING 72
SWIDTH 823 0
DWIDTH 21 0
BBX 22 18 0 0
BITMAP
0FFBFC
03C0F0
03C0F0
0380F0
0780E0
0781E0
0781E0
0701E0
0FFFC0
0F03C0
0E03C0
1E0380
1E0780
1E0780
1C0780
3C0F00
3C0F00
FF3FC0
ENDCHAR

STARTCHAR I
ENCODING 73
SWIDTH 385 0
DWIDTH 10 0
BBX 12 18 0 0
BITMAP
0FF0
03C0
0380
0780
0780
0780
0700
0F00
0F00
0E00
1E00
1E00
1E00
1C00
3C00
3C00
7C00
FF00
ENDCHAR

STARTCHAR J
ENCODING 74
SWIDTH 500 0
DWIDTH 13 0
BBX 14 18 0 0
BITMAP
03FC
00F0
00F0
00E0
01E0
01E0
01C0
01C0
03C0
03C0
0380
0780
0780
4780
EF00
EF00
CE00
7800
ENDCHAR

STARTCHAR K
ENCODING 75
SWIDTH 719 0
DWIDTH 18 0
BBX 20 18 0 0
BITMAP
0FF7F0
03C380
03C300
038600
078C00
079000
07A000
077000
0F7000
0F7000
0E7800
1E7800
1E3800
1E3C00
1C3C00
3C1C00
3C3E00
FF7F00
ENDCHAR

STARTCHAR L
ENCODING 76
SWIDTH 667 0
DWIDTH 17 0
BBX 15 18 0 0
BITMAP
0FF0
03C0
03C0
0380
0780
0780
0780
0700
0F00
0F00
0E00
1E00
1E00
1E02
1C02
3C0E
3C3C
FFFC
ENDCHAR

STARTCHAR M
ENCODING 77
SWIDTH 990 0
DWIDTH 25 0
BBX 26 18 0 0
BITMAP
0FC007C0
03C00F00
03C01F00
02E01700
03E02E00
05E05E00
05E0DE00
04E09E00
08E11C00
08E33C00
08F23C00
08F43800
10F87800
10787800
10707800
30607000
7040F000
F843FC00
ENDCHAR

STARTCHAR N
ENCODING 78
SWIDTH 771 0
DWIDTH 19 0
BBX 21 18 0 0
BITMAP
0FC0F8
03C030
03E020
02E020
05E040
04F040
04F040
087840
087880
083C80
083C80
101F00
101F00
100F00
200E00
200600
700600
F80200
ENDCHAR

STARTCHAR O
ENCODING 79
SWIDTH 771 0
DWIDTH 19 0
BBX 18 18 1 0
BITMAP
00FC00
038700
070380
0E0380
1E03C0
3C03C0
3C03C0
7803C0
7807C0
F80780
F00780
F00F80
F00F00
F00E00
701C00
783800
387000
0F8000
ENDCHAR

STARTCHAR P
ENCODING 80
SWIDTH 667 0
DWIDTH 17 0
BBX 17 18 0 0
BITMAP
0FFC00
03CF00
03C780
03C780
078780
078780
078F80
070F00
0F1E00
0FF800
0F0000
0E0000
1E0000
1E0000
1C0000
3C0000
3C0000
FF0000
ENDCHAR

STARTCHAR Q
ENCODING 81
SWIDTH 771 0
DWIDTH 19 0
BBX 18 23 2 -5
BITMAP
00FC00
038700
070380
0E0380
1E03C0
3C03C0
3C03C0
7803C0
7807C0
F80780
F00780
F00F80
F00F00
F00E00
701C00
703800
387000
1FC000
040000
080080
1FC180
3FFE00
47FC00
ENDCHAR

STARTCHAR R
ENCODING 82
SWIDTH 719 0
DWIDTH 18 0
BBX 17 18 0 0
BITMAP
0FFC00
03CF00
03C780
038780
078780
078780
070F00
0F1E00
0FFC00
0F7000
0E7800
1E7800
1E3800
1C3C00
3C3C00
3C1C00
3C1E00
FF1F00
ENDCHAR

STARTCHAR S
ENCODING 83
SWIDTH 604 0
DWIDTH 15 0
BBX 15 18 1 0
BITMAP
03F2
071E
0E0E
1E06
1E04
1E04
0F00
0F80
07E0
03F0
01F0
00F8
4078
C078
C078
E070
F0E0
9F80
ENDCHAR

STARTCHAR T
ENCODING 84
SWIDTH 667 0
DWIDTH 17 0
BBX 17 18 2 0
BITMAP
3FFF80
39E300
21E100
41C100
03C000
03C000
038000
078000
078000
078000
070000
0F0000
0F0000
0F0000
0E0000
1E0000
1E0000
FF8000
ENDCHAR

STARTCHAR U
ENCODING 85
SWIDTH 771 0
DWIDTH 19 0
BBX 18 18 3 0
BITMAP
7FC7C0
1E0380
1E0100
1E0100
3C0200
3C0200
3C0200
380200
780400
780400
780400
700800
F00800
F00800
F01000
703000
7C6000
1F8000
ENDCHAR

STARTCHAR V
ENCODING 86
SWIDTH 719 0
DWIDTH 18 0
BBX 16 18 4 0
BITMAP
FE1F
3C0E
380C
3818
3810
7820
7840
78C0
7980
7900
7A00
7C00
7800
7800
7000
6000
4000
4000
ENDCHAR

STARTCHAR W
ENCODING 87
SWIDTH 990 0
DWIDTH 25 0
BBX 24 18 3 0
BITMAP
FE7F1F
3C1C04
381C0C
381C08
383C10
381C20
387C60
38BC40
79BC80
793D00
7A3F00
7C3E00
7C3C00
783C00
703800
603000
602000
402000
ENDCHAR

STARTCHAR X
ENCODING 88
SWIDTH 719 0
DWIDTH 18 0
BBX 20 18 0 0
BITMAP
1FE3F0
07C1C0
03C180
03C300
03C600
01EC00
01F800
01F000
00F000
00F000
01F000
037800
067800
0C3800
183C00
303C00
703E00
F8FF00
ENDCHAR

STARTCHAR Y
ENCODING 89
SWIDTH 719 0
DWIDTH 18 0
BBX 17 18 3 0
BITMAP
FF9F80
3C0600
3C0600
1C0C00
1E0800
1E1000
0E2000
0F6000
0FC000
078000
0F0000
0F0000
0F0000
0E0000
1E0000
1E0000
1E0000
FF8000
ENDCHAR

STARTCHAR Z
ENCODING 90
SWIDTH 719 0
DWIDTH 18 0
BBX 19 18 0 0
BITMAP
07FFE0
0703C0
0407C0
080F80
001F00
003E00
007C00
007800
00F800
01F000
03E000
07C000
0F8000
0F0100
1E0300
3E0600
781E00
FFFE00
ENDCHAR

STARTCHAR bracketleft
ENCODING 91
SWIDTH 500 0
DWIDTH 13 0
BBX 13 22 1 -4
BITMAP
03F8
03C0
0380
0380
0700
0700
0700
0F00
0E00
0E00
0E00
1C00
1C00
1C00
3C00
3800
3800
3800
7000
7000
7000
FE00
ENDCHAR

STARTCHAR backslash
ENCODING 92
SWIDTH 281 0
DWIDTH 7 0
BBX 3 18 3 0
BITMAP
E0
E0
E0
E0
E0
E0
E0
E0
E0
E0
E0
E0
E0
E0
E0
C0
C0
C0
ENDCHAR

STARTCHAR bracketright
ENCODING 93
SWIDTH 500 0
DWIDTH 13 0
BBX 13 22 -1 -4
BITMAP
03F8
0070
0070
0070
00E0
00E0
00E0
01E0
01C0
01C0
01C0
0380
0380
0380
0700
0700
0700
0F00
0E00
0E00
1E00
FC00
ENDCHAR

STARTCHAR asciicircum
ENCODING 94
SWIDTH 510 0
DWIDTH 13 0
BBX 11 9 2 9
BITMAP
0400
0E00
0E00
1B00
1B00
3180
6180
60C0
C0E0
ENDCHAR

STARTCHAR underscore
ENCODING 95
SWIDTH 500 0
DWIDTH 13 0
BBX 13 1 -1 -3
BITMAP
FFF8
ENDCHAR

STARTCHAR quoteleft
ENCODING 96
SWIDTH 271 0
DWIDTH 7 0
BBX 5 8 3 10
BITMAP
08
10
20
60
F0
F0
F0
70
ENDCHAR

STARTCHAR a
ENCODING 97
SWIDTH 500 0
DWIDTH 13 0
BBX 12 11 0 0
BITMAP
07F0
1CE0
38E0
30E0
71C0
71C0
E3C0
E380
E590
FBE0
7380
ENDCHAR

STARTCHAR b
ENCODING 98
SWIDTH 500 0
DWIDTH 13 0
BBX 11 18 1 0
BITMAP
0300
1E00
0E00
0E00
0E00
1C00
1C00
1DC0
3DE0
3CE0
38E0
78E0
70E0
71C0
F1C0
E380
E700
3C00
ENDCHAR

STARTCHAR c
ENCODING 99
SWIDTH 437 0
DWIDTH 11 0
BBX 10 11 1 0
BITMAP
0380
0CC0
39C0
7180
7000
E000
E000
E000
F180
7E00
3C00
ENDCHAR

STARTCHAR d
ENCODING 100
SWIDTH 500 0
DWIDTH 13 0
BBX 14 18 0 0
BITMAP
000C
0078
0038
0038
0070
0070
0070
07E0
1CE0
38E0
30E0
71C0
71C0
E1C0
E380
E5B0
FBC0
7380
ENDCHAR

STARTCHAR e
ENCODING 101
SWIDTH 437 0
DWIDTH 11 0
BBX 10 11 1 0
BITMAP
0780
09C0
39C0
3180
7300
FE00
E000
E000
E180
7E00
3800
ENDCHAR

STARTCHAR f
ENCODING 102
SWIDTH 333 0
DWIDTH 8 0
BBX 17 23 -4 -5
BITMAP
000700
001D80
001980
003080
007000
007000
00E000
03F800
03F800
01E000
01C000
01C000
01C000
03C000
038000
038000
038000
070000
070000
060000
4E0000
CC0000
700000
ENDCHAR

STARTCHAR g
ENCODING 103
SWIDTH 500 0
DWIDTH 13 0
BBX 14 16 -1 -5
BITMAP
03C0
0E7C
1C70
3C70
38F0
18E0
11C0
0F00
1000
3E00
1FC0
3FE0
C1E0
C0E0
E1C0
3E00
ENDCHAR

STARTCHAR h
ENCODING 104
SWIDTH 500 0
DWIDTH 13 0
BBX 12 18 -1 0
BITMAP
0180
0F00
0700
0700
0F00
0E00
0E00
1E70
1CF0
1D70
1E70
3CE0
38E0
38E0
70C0
71D0
71E0
F1C0
ENDCHAR

STARTCHAR i
ENCODING 105
SWIDTH 271 0
DWIDTH 7 0
BBX 7 17 1 0
BITMAP
0C
1E
1E
0C
00
00
1C
78
38
38
70
70
70
E0
EC
F0
60
ENDCHAR

STARTCHAR j
ENCODING 106
SWIDTH 271 0
DWIDTH 7 0
BBX 12 22 -4 -5
BITMAP
0060
00F0
00F0
0060
0000
0000
0060
03E0
01E0
01C0
01C0
01C0
0380
0380
0380
0780
0700
0700
0E00
4E00
CC00
7000
ENDCHAR

STARTCHAR k
ENCODING 107
SWIDTH 552 0
DWIDTH 14 0
BBX 13 18 0 0
BITMAP
0380
0F00
0700
0700
0E00
0E00
0E00
1CF8
1C30
1C40
3C80
3B80
3B80
7BC0
71C0
71D8
71E0
E0C0
ENDCHAR

STARTCHAR l
ENCODING 108
SWIDTH 271 0
DWIDTH 7 0
BBX 8 18 0 0
BITMAP
03
1E
0E
0E
1C
1C
1C
3C
38
38
78
70
70
70
E0
EC
F0
E0
ENDCHAR

STARTCHAR m
ENCODING 109
SWIDTH 771 0
DWIDTH 19 0
BBX 18 11 0 0
BITMAP
0C71C0
7DF3C0
3E75C0
3A6BC0
3CF3C0
78E380
70E380
71E700
71C740
E1C780
E3C300
ENDCHAR

STARTCHAR n
ENCODING 110
SWIDTH 500 0
DWIDTH 13 0
BBX 12 11 0 0
BITMAP
0670
3EF0
1D70
1E70
3CE0
38E0
38E0
79C0
71D0
71E0
F1C0
ENDCHAR

STARTCHAR o
ENCODING 111
SWIDTH 500 0
DWIDTH 13 0
BBX 11 11 1 0
BITMAP
0780
1CE0
38E0
70E0
70E0
F1E0
E1C0
E1C0
E380
6600
3800
ENDCHAR

STARTCHAR p
ENCODING 112
SWIDTH 500 0
DWIDTH 13 0
BBX 14 16 -2 -5
BITMAP
01B8
0FBC
071C
071C
071C
0E1C
0E38
0E38
1E70
1C60
1F80
3800
3800
3800
7800
FE00
ENDCHAR

STARTCHAR q
ENCODING 113
SWIDTH 500 0
DWIDTH 13 0
BBX 12 16 1 -5
BITMAP
0770
1DE0
38E0
31E0
71C0
71C0
E3C0
E580
E780
FF80
7700
0700
0700
0E00
0E00
3F80
ENDCHAR

STARTCHAR r
ENCODING 114
SWIDTH 385 0
DWIDTH 10 0
BBX 10 11 0 0
BITMAP
1980
79C0
3B80
3B80
3C00
3400
7800
7000
7000
7000
E000
ENDCHAR

STARTCHAR s
ENCODING 115
SWIDTH 385 0
DWIDTH 10 0
BBX 9 11 0 0
BITMAP
0E80
1980
3880
3C80
1E00
1E00
0F00
4700
4700
6600
9C00
ENDCHAR

STARTCHAR t
ENCODING 116
SWIDTH 333 0
DWIDTH 8 0
BBX 7 14 1 0
BITMAP
04
0C
1C
7E
FE
38
38
70
70
70
E0
E4
E8
F0
ENDCHAR

STARTCHAR u
ENCODING 117
SWIDTH 500 0
DWIDTH 13 0
BBX 12 11 0 0
BITMAP
0C70
7CF0
38E0
38E0
79E0
71C0
71C0
E5C0
EFA0
F3C0
E180
ENDCHAR

STARTCHAR v
ENCODING 118
SWIDTH 438 0
DWIDTH 11 0
BBX 9 11 1 0
BITMAP
3100
F380
3980
3980
3900
3900
3A00
3C00
3800
3000
2000
ENDCHAR

STARTCHAR w
ENCODING 119
SWIDTH 667 0
DWIDTH 17 0
BBX 15 11 1 0
BITMAP
104C
F0CE
39CE
39C6
3AC4
3DC4
39C8
39D0
31E0
20C0
2080
ENDCHAR

STARTCHAR x
ENCODING 120
SWIDTH 552 0
DWIDTH 14 0
BBX 13 11 0 0
BITMAP
3E38
0E78
0F80
0700
0700
0700
0700
0780
4B90
F3E0
E1C0
ENDCHAR

STARTCHAR y
ENCODING 121
SWIDTH 500 0
DWIDTH 13 0
BBX 14 16 -2 -5
BITMAP
0618
1F1C
071C
0708
0708
0708
0710
07A0
03C0
0380
0380
0300
0200
6400
F800
7000
ENDCHAR

STARTCHAR z
ENCODING 122
SWIDTH 437 0
DWIDTH 11 0
BBX 11 13 0 -2
BITMAP
1FE0
1FC0
3E80
2100
0200
0400
0800
1000
3800
79C0
FDC0
0D80
0700
ENDCHAR

STARTCHAR braceleft
ENCODING 123
SWIDTH 396 0
DWIDTH 10 0
BBX 6 22 2 -5
BITMAP
1C
30
70
70
70
38
38
38
30
60
80
60
30
38
38
38
78
70
70
30
18
04
ENDCHAR

STARTCHAR bar
ENCODING 124
SWIDTH 219 0
DWIDTH 5 0
BBX 3 23 1 -5
BITMAP
E0
E0
E0
E0
E0
E0
E0
E0
E0
E0
E0
E0
E0
E0
E0
E0
E0
E0
E0
E0
E0
E0
E0
ENDCHAR

STARTCHAR braceright
ENCODING 125
SWIDTH 396 0
DWIDTH 10 0
BBX 6 22 2 -5
BITMAP
E0
30
38
38
38
78
70
70
30
18
04
18
30
30
70
70
30
38
38
30
60
80
ENDCHAR

STARTCHAR asciitilde
ENCODING 126
SWIDTH 667 0
DWIDTH 17 0
BBX 14 4 2 7
BITMAP
3E04
7F8C
47F8
C0F0
ENDCHAR

STARTCHAR space
ENCODING 160
SWIDTH 250 0
DWIDTH 7 0
BBX 0 0 0 0
BITMAP
ENDCHAR

STARTCHAR afii10023
ENCODING 161
SWIDTH 667 0
DWIDTH 17 0
BBX 16 23 1 0
BITMAP
0186
03CF
03CF
0186
0000
1FFF
0787
0783
0781
0700
0F08
0F08
0E18
1FF0
1E30
1E10
1C10
3C00
3C04
3C04
381C
7C38
FFF8
ENDCHAR

STARTCHAR afii10051
ENCODING 162
SWIDTH 820 0
DWIDTH 21 0
BBX 19 18 1 0
BITMAP
1FFF80
1DE380
31E100
21C100
23C100
03C000
03C000
078F80
07BFC0
07C3E0
0781E0
0F01E0
0F01E0
0F01C0
1E03C0
1E0380
1E0700
FF3E00
ENDCHAR

STARTCHAR afii10052
ENCODING 163
SWIDTH 634 0
DWIDTH 16 0
BBX 18 22 0 0
BITMAP
003F00
007800
00E000
000000
0FFFC0
03C1C0
03C080
038080
078000
078000
078000
0F0000
0F0000
0F0000
0E0000
1E0000
1E0000
1C0000
1C0000
3C0000
3C0000
FF0000
ENDCHAR

STARTCHAR afii10053
ENCODING 164
SWIDTH 695 0
DWIDTH 17 0
BBX 18 18 1 0
BITMAP
007E40
01E3C0
038180
070080
0E0080
1E0000
3C0000
380000
7FF000
780000
F00000
F00000
F00000
F00000
F00400
781800
7C6000
1F8000
ENDCHAR

STARTCHAR afii10054
ENCODING 165
SWIDTH 604 0
DWIDTH 15 0
BBX 15 18 1 0
BITMAP
03F2
071E
0E0E
1E06
1E04
1E04
0F00
0F80
07E0
03F0
01F0
00F8
4078
C078
C078
E070
F0E0
9F80
ENDCHAR

STARTCHAR afii10055
ENCODING 166
SWIDTH 385 0
DWIDTH 10 0
BBX 12 18 0 0
BITMAP
0FF0
03C0
0380
0780
0780
0780
0700
0F00
0F00
0E00
1E00
1E00
1E00
1C00
3C00
3C00
7C00
FF00
ENDCHAR

STARTCHAR afii10056
ENCODING 167
SWIDTH 385 0
DWIDTH 10 0
BBX 14 23 0 0
BITMAP
0618
0F3C
0F3C
0618
0000
0FF0
03C0
03C0
0380
0380
0780
0780
0700
0F00
0F00
0F00
0E00
1E00
1E00
1C00
3C00
3C00
FF00
ENDCHAR

STARTCHAR afii10057
ENCODING 168
SWIDTH 500 0
DWIDTH 13 0
BBX 14 18 0 0
BITMAP
03FC
00F0
00F0
00E0
01E0
01E0
01C0
01C0
03C0
03C0
0380
0780
0780
4780
EF00
EF00
CE00
7800
ENDCHAR

STARTCHAR afii10058
ENCODING 169
SWIDTH 948 0
DWIDTH 24 0
BBX 23 18 -1 0
BITMAP
03FFF0
0043C0
004380
008780
008780
008700
010F00
010F00
010FF0
020E3C
021E1C
021E1E
021E1E
041C1E
043C3E
E83C3C
F83878
E0FFE0
ENDCHAR

STARTCHAR afii10059
ENCODING 170
SWIDTH 1011 0
DWIDTH 25 0
BBX 24 18 0 0
BITMAP
0FF7F8
03C1E0
03C1C0
0383C0
0783C0
078380
070780
070780
0FFFF8
0F071E
0E0F0E
1E0F0F
1E0F0F
1E0E0F
1C1E1F
3C1E1E
3C1C3C
FEFFF0
ENDCHAR

STARTCHAR afii10060
ENCODING 171
SWIDTH 804 0
DWIDTH 20 0
BBX 17 18 2 0
BITMAP
3FFE00
33CE00
63C600
438400
478400
078000
078000
0F1F00
0F7F80
0FC780
0F0780
1E0780
1E0700
1E0F00
3C0F00
3C0E00
3C1E00
FF7F80
ENDCHAR

STARTCHAR afii10061
ENCODING 172
SWIDTH 717 0
DWIDTH 18 0
BBX 19 22 0 0
BITMAP
003F00
003C00
007000
000000
0FF1E0
03C3E0
03C2E0
038400
078400
078800
078800
071000
0FE000
0F7000
0E7800
1E7800
1E3800
1C3C00
1C3C00
3C1C00
3C1E00
FE1F00
ENDCHAR

STARTCHAR hyphen
ENCODING 173
SWIDTH 333 0
DWIDTH 8 0
BBX 7 3 1 4
BITMAP
FE
FE
FE
ENDCHAR

STARTCHAR afii10062
ENCODING 174
SWIDTH 711 0
DWIDTH 18 0
BBX 18 22 3 0
BITMAP
030C00
039800
01F000
000000
FF0FC0
3C0300
3C0600
1C0400
1E0C00
1E0800
1E1000
0E1000
0F2000
0F6000
074000
078000
078000
030000
E30000
E20000
E40000
780000
ENDCHAR

STARTCHAR afii10145
ENCODING 175
SWIDTH 808 0
DWIDTH 20 0
BBX 22 23 0 -5
BITMAP
0FFBFC
03C0F0
03C0F0
0380F0
0781E0
0781E0
0781E0
0701C0
0F03C0
0F03C0
0E03C0
1E0780
1E0780
1E0780
1C0700
3C0F00
3C0F00
FFFFC0
03C000
018000
010000
010000
010000
ENDCHAR

STARTCHAR afii10017
ENCODING 176
SWIDTH 719 0
DWIDTH 18 0
BBX 15 18 0 0
BITMAP
0002
0006
0006
000E
001E
003E
006E
005E
009E
011C
021C
07FC
0C1C
081C
101C
203C
603C
F8FE
ENDCHAR

STARTCHAR afii10018
ENCODING 177
SWIDTH 667 0
DWIDTH 17 0
BBX 17 18 0 0
BITMAP
0FFF80
03C380
038100
078100
078000
070000
0F0000
0F0000
0FF000
0E3C00
1E1C00
1E1E00
1C1E00
1C1E00
3C3E00
3C3C00
387800
FFE000
ENDCHAR

STARTCHAR afii10019
ENCODING 178
SWIDTH 667 0
DWIDTH 17 0
BBX 17 18 0 0
BITMAP
0FFE00
03CF00
03C780
03C780
038780
078700
078F00
070C00
0FF000
0F1C00
0F0E00
0F0F00
1F0F00
1E0F00
1E1F00
1E1E00
3C3C00
FFF000
ENDCHAR

STARTCHAR afii10020
ENCODING 179
SWIDTH 619 0
DWIDTH 15 0
BBX 18 18 0 0
BITMAP
0FFFC0
03C1C0
03C080
038080
078000
078000
070000
0F0000
0F0000
0F0000
0E0000
1E0000
1E0000
1C0000
1C0000
3C0000
3C0000
FF0000
ENDCHAR

STARTCHAR afii10021
ENCODING 180
SWIDTH 707 0
DWIDTH 18 0
BBX 22 23 -2 -5
BITMAP
00FFFC
0020F0
0020E0
0041E0
0041E0
0041C0
0043C0
0083C0
0083C0
010380
010780
030780
020700
060F00
040F00
080F00
181F00
7FFF80
700380
C00180
800180
800080
800100
ENDCHAR

STARTCHAR afii10022
ENCODING 181
SWIDTH 667 0
DWIDTH 17 0
BBX 17 18 0 0
BITMAP
0FFF80
03C380
03C180
038080
078000
078400
070400
0F0800
0FF800
0F1800
0E0800
1E0800
1E0000
1E0200
1C0200
3C0E00
3C3C00
FFFC00
ENDCHAR

STARTCHAR afii10024
ENCODING 182
SWIDTH 953 0
DWIDTH 24 0
BBX 26 18 -1 0
BITMAP
0387F3C0
07C3C3C0
0743C5C0
00438400
00478800
00478800
00479800
00471000
003FE000
01EF7000
03CE7000
079E7800
0F9E7800
0F1E3800
1E1C3800
3E3C3C00
7C3C3C00
F8FE1E00
ENDCHAR

STARTCHAR afii10025
ENCODING 183
SWIDTH 538 0
DWIDTH 13 0
BBX 13 18 0 0
BITMAP
07E0
0C70
0878
1078
0078
00F0
00E0
0140
0F80
01E0
00E0
00F0
00F0
00F0
81E0
81E0
67C0
1F00
ENDCHAR

STARTCHAR afii10026
ENCODING 184
SWIDTH 812 0
DWIDTH 20 0
BBX 22 18 0 0
BITMAP
0FFBFC
03C0F0
03C0F0
0381F0
0783E0
0786E0
0785E0
0709C0
0F13C0
0F23C0
0E43C0
1E8380
1F8780
1F0780
1E0700
3C0F00
3C0F00
FF7FC0
ENDCHAR

STARTCHAR afii10027
ENCODING 185
SWIDTH 812 0
DWIDTH 20 0
BBX 22 23 0 0
BITMAP
001020
0030E0
0038C0
000F00
000000
0FFBFC
03C0F0
03C0F0
0381F0
0783E0
0786E0
0785E0
0709C0
0F13C0
0F23C0
0E43C0
1E8380
1F8780
1F0780
1E0700
3C0F00
3C0F00
FF7FC0
ENDCHAR

STARTCHAR afii10028
ENCODING 186
SWIDTH 717 0
DWIDTH 18 0
BBX 19 18 0 0
BITMAP
0FF1E0
03C3E0
03C2E0
038400
078400
078800
078800
071000
0FE000
0F7000
0E7800
1E7800
1E3800
1C3C00
1C3C00
3C1C00
3C1E00
FE1F00
ENDCHAR

STARTCHAR afii10029
ENCODING 187
SWIDTH 723 0
DWIDTH 18 0
BBX 21 18 -1 0
BITMAP
01FFF8
0041E0
0041E0
0041C0
00C3C0
0083C0
008380
008780
010780
010780
010700
020F00
020F00
020E00
041E00
E41E00
F81E00
70FF80
ENDCHAR

STARTCHAR afii10030
ENCODING 188
SWIDTH 990 0
DWIDTH 25 0
BBX 26 18 0 0
BITMAP
0FC007C0
03C00F00
03C01F00
02E01700
03E02E00
05E05E00
05E0DE00
04E09E00
08E11C00
08E33C00
08F23C00
08F43800
10F87800
10787800
10707800
30607000
7040F000
F843FC00
ENDCHAR

STARTCHAR afii10031
ENCODING 189
SWIDTH 823 0
DWIDTH 21 0
BBX 22 18 0 0
BITMAP
0FFBFC
03C0F0
03C0F0
0380F0
0780E0
0781E0
0781E0
0701E0
0FFFC0
0F03C0
0E03C0
1E0380
1E0780
1E0780
1C0780
3C0F00
3C0F00
FF3FC0
ENDCHAR

STARTCHAR afii10032
ENCODING 190
SWIDTH 771 0
DWIDTH 19 0
BBX 18 18 1 0
BITMAP
00FC00
038700
070380
0E0380
1E03C0
3C03C0
3C03C0
7803C0
7807C0
F80780
F00780
F00F80
F00F00
F00E00
701C00
783800
387000
0F8000
ENDCHAR

STARTCHAR afii10033
ENCODING 191
SWIDTH 811 0
DWIDTH 20 0
BBX 22 18 0 0
BITMAP
0FFFFC
03C0F0
03C0F0
0380F0
0780E0
0781E0
0781E0
0701C0
0F03C0
0F03C0
0E03C0
1E0380
1E0780
1C0780
1C0700
3C0F00
3C0F00
FF3FC0
ENDCHAR

STARTCHAR afii10034
ENCODING 192
SWIDTH 667 0
DWIDTH 17 0
BBX 17 18 0 0
BITMAP
0FFC00
03CF00
03C780
03C780
078780
078780
078F80
070F00
0F1E00
0FF800
0F0000
0E0000
1E0000
1E0000
1C0000
3C0000
3C0000
FF0000
ENDCHAR

STARTCHAR afii10035
ENCODING 193
SWIDTH 719 0
DWIDTH 18 0
BBX 18 18 2 0
BITMAP
00FF40
03C3C0
070180
1E0080
3E0080
3C0000
780000
780000
F80000
F00000
F00000
F00000
F00000
700000
780200
380400
1E1800
0FE000
ENDCHAR

STARTCHAR afii10036
ENCODING 194
SWIDTH 667 0
DWIDTH 17 0
BBX 17 18 2 0
BITMAP
3FFF80
39E300
21E100
41C100
03C000
03C000
038000
078000
078000
078000
070000
0F0000
0F0000
0F0000
0E0000
1E0000
1E0000
FF8000
ENDCHAR

STARTCHAR afii10037
ENCODING 195
SWIDTH 711 0
DWIDTH 18 0
BBX 18 18 3 0
BITMAP
FF0FC0
3C0300
3C0600
1C0400
1E0C00
1E0800
1E1000
0E1000
0F2000
0F6000
074000
078000
078000
030000
E30000
E20000
E40000
780000
ENDCHAR

STARTCHAR afii10038
ENCODING 196
SWIDTH 862 0
DWIDTH 22 0
BBX 19 18 2 0
BITMAP
00FF00
007C00
003C00
07FB80
1C78C0
3870E0
78F0E0
F0F0E0
F0F1E0
F0E1E0
E1E1C0
E1E3C0
E1C380
73C700
3FFC00
03C000
07C000
1FE000
ENDCHAR

STARTCHAR afii10039
ENCODING 197
SWIDTH 719 0
DWIDTH 18 0
BBX 20 18 0 0
BITMAP
1FE3F0
07C1C0
03C180
03C300
03C600
01EC00
01F800
01F000
00F000
00F000
01F000
037800
067800
0C3800
183C00
303C00
703E00
F8FF00
ENDCHAR

STARTCHAR afii10040
ENCODING 198
SWIDTH 808 0
DWIDTH 20 0
BBX 22 23 0 -5
BITMAP
0FFBFC
03C0F0
03C0F0
0380F0
0780E0
0781E0
0781E0
0701C0
0F03C0
0F03C0
0E03C0
1E0380
1E0780
1E0780
1C0700
3C0F00
3C0F00
FFFFC0
0001C0
000080
000080
000080
000080
ENDCHAR

STARTCHAR afii10041
ENCODING 199
SWIDTH 749 0
DWIDTH 19 0
BBX 18 18 3 0
BITMAP
FF3FC0
3C0F00
380F00
781E00
781E00
701E00
F01C00
F03C00
F03C00
F9FC00
7F3800
007800
007800
007000
00F000
00F000
01F000
07FC00
ENDCHAR

STARTCHAR afii10042
ENCODING 200
SWIDTH 1162 0
DWIDTH 29 0
BBX 31 18 0 0
BITMAP
0FF3F8FE
03C0F078
03C1E078
0381E070
0781C0F0
0781C0F0
0703C0E0
0703C0E0
0F0381E0
0F0781E0
0E0781C0
1E0783C0
1E0703C0
1C0F0380
1C0F0380
3C0E0780
3C1F0780
FFFFFFE0
ENDCHAR

STARTCHAR afii10043
ENCODING 201
SWIDTH 1162 0
DWIDTH 29 0
BBX 31 23 0 -5
BITMAP
0FF3F8FE
03C0F078
03C1E078
0381E070
0781C0F0
0781C0F0
0703C0E0
0703C0E0
0F0381E0
0F0781E0
0E0781C0
1E0783C0
1E0703C0
1C0F0380
1C0F0380
3C0E0780
3C1F0780
FFFFFFE0
000000C0
00000040
00000040
00000040
00000040
ENDCHAR

STARTCHAR afii10044
ENCODING 202
SWIDTH 738 0
DWIDTH 18 0
BBX 16 18 1 0
BITMAP
3FF8
39E0
31C0
23C0
43C0
0380
0380
0780
07F8
071E
0F0E
0F0F
0E0F
0E0F
1E1F
1E1E
3C3C
FFF0
ENDCHAR

STARTCHAR afii10045
ENCODING 203
SWIDTH 998 0
DWIDTH 25 0
BBX 26 18 0 0
BITMAP
0FF03FC0
03C00F80
03800F00
07800F00
07800F00
07000E00
07001E00
0F001E00
0FF01C00
0E3C3C00
1E1C3C00
1E1E3C00
1C1E3800
1C1E7800
3C3E7800
3C3C7000
3878F800
FFE1FE00
ENDCHAR

STARTCHAR afii10046
ENCODING 204
SWIDTH 662 0
DWIDTH 17 0
BBX 15 18 0 0
BITMAP
0FF0
03C0
0380
0780
0780
0700
0700
0F00
0FF0
0E3C
1E1C
1E1E
1C1E
1C1E
3C3E
3C3C
3878
FFE0
ENDCHAR

STARTCHAR afii10047
ENCODING 205
SWIDTH 693 0
DWIDTH 17 0
BBX 16 18 1 0
BITMAP
0BF0
0C3C
181E
100E
200F
000F
000F
000F
07FF
000F
001E
001E
001E
003C
8038
4070
31E0
1F80
ENDCHAR

STARTCHAR afii10048
ENCODING 206
SWIDTH 1118 0
DWIDTH 28 0
BBX 28 18 0 0
BITMAP
0FF03F00
03C0E1C0
0781C0E0
078380F0
078700F0
070F00F0
0F1E00F0
0F1E00F0
0FFE01F0
1E3C01E0
1E3C01E0
1E3C03C0
1C3C03C0
3C3C0780
3C1C0700
381E0E00
7C0E1800
FE03E000
ENDCHAR

STARTCHAR afii10049
ENCODING 207
SWIDTH 708 0
DWIDTH 18 0
BBX 21 18 -1 0
BITMAP
00FFF8
01E1C0
03C3C0
0783C0
078380
078780
078780
034780
00FF00
03CF00
07CF00
078E00
0F1E00
1F1E00
3E1E00
3C1C00
783C00
F8FF00
ENDCHAR

STARTCHAR afii10065
ENCODING 208
SWIDTH 500 0
DWIDTH 13 0
BBX 12 11 0 0
BITMAP
07F0
1CE0
38E0
30E0
71C0
71C0
E3C0
E380
E590
FBE0
7380
ENDCHAR

STARTCHAR afii10066
ENCODING 209
SWIDTH 495 0
DWIDTH 12 0
BBX 12 18 1 0
BITMAP
0010
01F0
07E0
07C0
0C00
1000
1000
2780
3CE0
58E0
70E0
70E0
F1E0
E1C0
E1C0
E380
6700
3C00
ENDCHAR

STARTCHAR afii10067
ENCODING 210
SWIDTH 458 0
DWIDTH 11 0
BBX 10 11 1 0
BITMAP
0780
1CC0
38C0
7980
7300
FF00
E380
E380
E380
6700
3C00
ENDCHAR

STARTCHAR afii10068
ENCODING 211
SWIDTH 398 0
DWIDTH 10 0
BBX 10 11 0 0
BITMAP
0F80
31C0
01C0
0180
0700
0800
3000
E000
E000
F380
7C00
ENDCHAR

STARTCHAR afii10069
ENCODING 212
SWIDTH 496 0
DWIDTH 12 0
BBX 11 17 1 0
BITMAP
0400
0300
0180
01C0
00C0
00E0
07E0
1CE0
38E0
30E0
70E0
F1E0
E1C0
E1C0
E380
6700
3C00
ENDCHAR

STARTCHAR afii10070
ENCODING 213
SWIDTH 437 0
DWIDTH 11 0
BBX 10 11 1 0
BITMAP
0780
09C0
39C0
3180
7300
FE00
E000
E000
E180
7E00
3800
ENDCHAR

STARTCHAR afii10072
ENCODING 214
SWIDTH 982 0
DWIDTH 25 0
BBX 24 11 0 0
BITMAP
0F0E0E
1F8E33
639C67
039CE6
039CC0
03FFC0
0339C0
6739C0
E639C6
CC70F8
7070E0
ENDCHAR

STARTCHAR afii10073
ENCODING 215
SWIDTH 416 0
DWIDTH 10 0
BBX 10 11 0 0
BITMAP
2F80
31C0
21C0
0380
0E00
0300
0380
0380
8780
4F00
3E00
ENDCHAR

STARTCHAR afii10074
ENCODING 216
SWIDTH 500 0
DWIDTH 13 0
BBX 12 11 0 0
BITMAP
0C70
7CF0
38E0
38E0
79E0
71C0
71C0
E5C0
EFA0
F3C0
E180
ENDCHAR

STARTCHAR afii10075
ENCODING 217
SWIDTH 500 0
DWIDTH 13 0
BBX 12 15 0 0
BITMAP
0E20
0E40
0780
0000
0C70
7CF0
38E0
38E0
79E0
71C0
71C0
E5C0
EFA0
F3C0
E180
ENDCHAR

STARTCHAR afii10076
ENCODING 218
SWIDTH 493 0
DWIDTH 12 0
BBX 12 11 0 0
BITMAP
0E30
7C70
1C80
3880
3900
3E00
7700
7380
7380
E1C0
E0E0
ENDCHAR

STARTCHAR afii10077
ENCODING 219
SWIDTH 482 0
DWIDTH 12 0
BBX 13 11 -1 0
BITMAP
0FF8
0678
0470
0470
04F0
04E0
08E0
09E0
51D0
F1E0
E0C0
ENDCHAR

STARTCHAR afii10078
ENCODING 220
SWIDTH 652 0
DWIDTH 16 0
BBX 17 11 -1 0
BITMAP
018380
0F8700
058B00
059700
079700
0BAE00
0BCE00
0BDE00
D19D00
E11E00
C10C00
ENDCHAR

STARTCHAR afii10079
ENCODING 221
SWIDTH 512 0
DWIDTH 13 0
BBX 13 11 0 0
BITMAP
0638
3C70
1C70
1C70
38F0
3FE0
38E0
79E0
71D0
71E0
F0C0
ENDCHAR

STARTCHAR afii10080
ENCODING 222
SWIDTH 500 0
DWIDTH 13 0
BBX 11 11 1 0
BITMAP
0780
1CE0
38E0
70E0
70E0
F1E0
E1C0
E1C0
E380
6600
3800
ENDCHAR

STARTCHAR afii10081
ENCODING 223
SWIDTH 500 0
DWIDTH 13 0
BBX 12 11 0 0
BITMAP
0E70
7CF0
1D70
1E70
3CE0
38E0
38E0
79E0
71D0
71E0
F0C0
ENDCHAR

STARTCHAR afii10082
ENCODING 224
SWIDTH 500 0
DWIDTH 13 0
BBX 14 16 -2 -5
BITMAP
01B8
0FBC
071C
071C
071C
0E1C
0E38
0E38
1E70
1C60
1F80
3800
3800
3800
7800
FE00
ENDCHAR

STARTCHAR afii10083
ENCODING 225
SWIDTH 437 0
DWIDTH 11 0
BBX 10 11 1 0
BITMAP
0380
0CC0
39C0
7180
7000
E000
E000
E000
F180
7E00
3C00
ENDCHAR

STARTCHAR afii10084
ENCODING 226
SWIDTH 771 0
DWIDTH 19 0
BBX 18 11 0 0
BITMAP
0C71C0
7DF3C0
3E75C0
3A6BC0
3CF3C0
78E380
70E380
71E700
71C740
E1C780
E3C300
ENDCHAR

STARTCHAR afii10085
ENCODING 227
SWIDTH 500 0
DWIDTH 13 0
BBX 14 17 -2 -5
BITMAP
0218
1F1C
071C
0708
0708
0708
0710
0790
03A0
03C0
0380
0300
0300
0200
E400
F800
7000
ENDCHAR

STARTCHAR afii10086
ENCODING 228
SWIDTH 714 0
DWIDTH 18 0
BBX 17 23 0 -5
BITMAP
000C00
007800
003800
003800
007800
007000
007000
0FEF00
1CF380
38E380
70E380
71C380
F1C780
F1C700
E38700
E38E00
639C00
3BB000
070000
070000
0F0000
0F0000
3F8000
ENDCHAR

STARTCHAR afii10087
ENCODING 229
SWIDTH 552 0
DWIDTH 14 0
BBX 13 11 0 0
BITMAP
3E38
0E78
0F80
0700
0700
0700
0700
0780
4B90
F3E0
E1C0
ENDCHAR

STARTCHAR afii10088
ENCODING 230
SWIDTH 501 0
DWIDTH 13 0
BBX 12 15 0 -4
BITMAP
1C70
7CF0
38E0
38E0
79E0
71C0
71C0
F7C0
E7A0
FBE0
E3C0
0040
0060
0060
0040
ENDCHAR

STARTCHAR afii10089
ENCODING 231
SWIDTH 486 0
DWIDTH 12 0
BBX 10 11 2 0
BITMAP
31C0
F380
7380
E380
E700
EF00
F700
0E00
0E80
0F00
0600
ENDCHAR

STARTCHAR afii10090
ENCODING 232
SWIDTH 776 0
DWIDTH 19 0
BBX 18 11 1 0
BITMAP
1CF1C0
78E380
38E380
30E380
71C780
71C700
73CB00
E59F00
EBAE80
F3CF00
E38600
ENDCHAR

STARTCHAR afii10091
ENCODING 233
SWIDTH 776 0
DWIDTH 19 0
BBX 18 16 1 -5
BITMAP
1CF1C0
78E1C0
38E380
30E380
71C380
71C700
71CB00
E59700
EB9F80
F3EF80
E38680
000100
000180
000180
000100
000100
ENDCHAR

STARTCHAR afii10092
ENCODING 234
SWIDTH 523 0
DWIDTH 13 0
BBX 11 11 1 0
BITMAP
7F00
4E00
8E00
0C00
1FC0
1CE0
1CE0
38E0
39C0
1980
0F00
ENDCHAR

STARTCHAR afii10093
ENCODING 235
SWIDTH 667 0
DWIDTH 17 0
BBX 16 11 1 0
BITMAP
1C07
781F
380E
380E
7F1E
739C
739C
E3BC
E73A
673C
3C38
ENDCHAR

STARTCHAR afii10094
ENCODING 236
SWIDTH 449 0
DWIDTH 11 0
BBX 9 11 1 0
BITMAP
1C00
7800
3800
3800
7F00
7380
7380
E380
E700
6600
3C00
ENDCHAR

STARTCHAR afii10095
ENCODING 237
SWIDTH 415 0
DWIDTH 10 0
BBX 10 11 0 0
BITMAP
1F00
3180
21C0
01C0
01C0
1FC0
0380
0380
8700
4F00
3C00
ENDCHAR

STARTCHAR afii10096
ENCODING 238
SWIDTH 693 0
DWIDTH 17 0
BBX 17 11 0 0
BITMAP
4C0E00
1C3300
3C6380
38E380
39C780
3FC700
73C700
738E00
738C00
E19800
E0E000
ENDCHAR

STARTCHAR afii10097
ENCODING 239
SWIDTH 494 0
DWIDTH 12 0
BBX 14 11 -2 0
BITMAP
03FC
0738
0E38
0E38
0670
03F0
0770
0EF0
1CE8
38F0
F060
ENDCHAR

STARTCHAR afii61352
ENCODING 240
SWIDTH 1000 0
DWIDTH 25 0
BBX 25 18 -1 0
BITMAP
03E07000
01E0F000
01E17000
01E12000
01F20000
01720700
02F21980
02723980
02747180
047C7380
047C7300
04386300
04386600
08383800
48380000
E8100000
F011FE00
E011FE00
ENDCHAR

STARTCHAR afii10071
ENCODING 241
SWIDTH 437 0
DWIDTH 11 0
BBX 11 16 1 0
BITMAP
1CE0
1CE0
1CE0
0000
0000
0780
09C0
31C0
7380
6300
FC00
E000
E000
E180
7E00
3800
ENDCHAR

STARTCHAR afii10099
ENCODING 242
SWIDTH 472 0
DWIDTH 12 0
BBX 12 23 -1 -5
BITMAP
0380
0F00
0700
1FF0
0F00
0E00
0E00
1EF0
1DF0
1D70
1E70
3CF0
38E0
38E0
79E0
71C0
71C0
F380
0300
0300
0600
0C00
1000
ENDCHAR

STARTCHAR afii10100
ENCODING 243
SWIDTH 406 0
DWIDTH 10 0
BBX 13 17 0 0
BITMAP
0078
00E0
0180
0300
0000
0000
3FE0
1C60
1C20
1C00
3800
3800
3800
7000
7000
7000
F800
ENDCHAR

STARTCHAR afii10101
ENCODING 244
SWIDTH 426 0
DWIDTH 11 0
BBX 11 11 0 0
BITMAP
07A0
1C40
3840
3800
7000
FE00
E000
E000
E100
E200
7C00
ENDCHAR

STARTCHAR afii10102
ENCODING 245
SWIDTH 385 0
DWIDTH 10 0
BBX 9 11 0 0
BITMAP
0E80
1980
3880
3C80
1E00
1E00
0F00
4700
4700
6600
9C00
ENDCHAR

STARTCHAR afii10103
ENCODING 246
SWIDTH 271 0
DWIDTH 7 0
BBX 7 17 1 0
BITMAP
0C
1E
1E
0C
00
00
1C
78
38
38
70
70
70
E0
EC
F0
60
ENDCHAR

STARTCHAR afii10104
ENCODING 247
SWIDTH 271 0
DWIDTH 7 0
BBX 9 16 0 0
BITMAP
7380
7380
7380
0000
0000
0C00
7C00
3800
3800
7800
7000
7000
F000
E400
F800
6000
ENDCHAR

STARTCHAR afii10105
ENCODING 248
SWIDTH 271 0
DWIDTH 7 0
BBX 12 22 -4 -5
BITMAP
0060
00F0
00F0
0060
0000
0000
0060
03E0
01E0
01C0
01C0
01C0
0380
0380
0380
0780
0700
0700
0E00
4E00
CC00
7000
ENDCHAR

STARTCHAR afii10106
ENCODING 249
SWIDTH 679 0
DWIDTH 17 0
BBX 17 11 -1 0
BITMAP
00F800
017800
027000
027000
04EF00
04F380
08E380
09C780
51C700
F0CE00
E07C00
ENDCHAR

STARTCHAR afii10107
ENCODING 250
SWIDTH 709 0
DWIDTH 18 0
BBX 17 11 0 0
BITMAP
0E3800
7CF800
1C7000
38F000
38EF00
3FF380
796380
71C380
71C700
F1CE00
E07800
ENDCHAR

STARTCHAR afii10108
ENCODING 251
SWIDTH 500 0
DWIDTH 13 0
BBX 12 18 -1 0
BITMAP
0380
0F00
0700
1FF0
0F00
0E00
0E00
1EF0
1DF0
1D70
1E70
3CE0
38E0
38E0
79E0
71D0
71E0
F1C0
ENDCHAR

STARTCHAR afii10109
ENCODING 252
SWIDTH 495 0
DWIDTH 12 0
BBX 14 17 0 0
BITMAP
003C
0070
00E0
0180
0000
0000
0C30
7C70
1C80
3880
3900
3E00
7700
7380
7380
E1C0
E0E0
ENDCHAR

STARTCHAR section
ENCODING 253
SWIDTH 604 0
DWIDTH 15 0
BBX 14 23 1 -5
BITMAP
01E0
0618
0C1C
0C1C
0E1C
0F00
0780
0BC0
13E0
30F0
3070
3070
3830
3C30
1E60
0F40
0780
0380
E380
E180
E180
6300
1C00
ENDCHAR

STARTCHAR afii10110
ENCODING 254
SWIDTH 500 0
DWIDTH 13 0
BBX 14 21 -2 -5
BITMAP
0308
0390
01E0
0000
0108
1F1C
071C
070C
0708
0708
0710
0710
03A0
03C0
0380
0300
0300
0200
E400
F800
7000
ENDCHAR

STARTCHAR afii10193
ENCODING 255
SWIDTH 501 0
DWIDTH 13 0
BBX 13 15 0 -4
BITMAP
3E38
1C70
1C70
3C70
38F0
38E0
78E0
72E0
75D0
79E0
50C0
2000
6000
6000
C000
ENDCHAR
ENDFONT
